<svg width="76" height="87" viewBox="0 0 76 87" fill="none" xmlns="http://www.w3.org/2000/svg">
<g filter="url(#filter0_dddd_3009_13032)">
<circle cx="38.0785" cy="33.0295" r="31.0295" fill="white"/>
<circle cx="38.0785" cy="33.0295" r="27.7053" stroke="#806181" stroke-width="6.64837"/>
</g>
<path d="M29.3624 45V21.0715H38.8029C40.61 21.0715 42.1523 21.3947 43.4297 22.0412C44.715 22.6799 45.6925 23.5874 46.3624 24.7636C47.0401 25.9319 47.3789 27.3067 47.3789 28.888C47.3789 30.477 47.0362 31.844 46.3507 32.989C45.6653 34.1262 44.6721 34.9986 43.3713 35.6062C42.0783 36.2137 40.5127 36.5175 38.6744 36.5175H32.3534V32.4515H37.8565C38.8224 32.4515 39.6247 32.3191 40.2634 32.0543C40.9021 31.7894 41.3773 31.3922 41.6889 30.8625C42.0082 30.3329 42.1679 29.6747 42.1679 28.888C42.1679 28.0935 42.0082 27.4236 41.6889 26.8783C41.3773 26.3331 40.8982 25.9203 40.2517 25.6398C39.613 25.3516 38.8068 25.2075 37.8332 25.2075H34.4215V45H29.3624ZM42.2847 34.1106L48.2318 45H42.6469L36.8284 34.1106H42.2847Z" fill="#806181"/>
<defs>
<filter id="filter0_dddd_3009_13032" x="0.400705" y="0.670326" width="75.3556" height="85.9927" filterUnits="userSpaceOnUse" color-interpolation-filters="sRGB">
<feFlood flood-opacity="0" result="BackgroundImageFix"/>
<feColorMatrix in="SourceAlpha" type="matrix" values="0 0 0 0 0 0 0 0 0 0 0 0 0 0 0 0 0 0 127 0" result="hardAlpha"/>
<feOffset dy="1.32967"/>
<feGaussianBlur stdDeviation="1.32967"/>
<feColorMatrix type="matrix" values="0 0 0 0 0 0 0 0 0 0 0 0 0 0 0 0 0 0 0.1 0"/>
<feBlend mode="normal" in2="BackgroundImageFix" result="effect1_dropShadow_3009_13032"/>
<feColorMatrix in="SourceAlpha" type="matrix" values="0 0 0 0 0 0 0 0 0 0 0 0 0 0 0 0 0 0 127 0" result="hardAlpha"/>
<feOffset dy="3.98902"/>
<feGaussianBlur stdDeviation="1.99451"/>
<feColorMatrix type="matrix" values="0 0 0 0 0 0 0 0 0 0 0 0 0 0 0 0 0 0 0.09 0"/>
<feBlend mode="normal" in2="effect1_dropShadow_3009_13032" result="effect2_dropShadow_3009_13032"/>
<feColorMatrix in="SourceAlpha" type="matrix" values="0 0 0 0 0 0 0 0 0 0 0 0 0 0 0 0 0 0 127 0" result="hardAlpha"/>
<feOffset dy="9.30771"/>
<feGaussianBlur stdDeviation="2.65935"/>
<feColorMatrix type="matrix" values="0 0 0 0 0 0 0 0 0 0 0 0 0 0 0 0 0 0 0.05 0"/>
<feBlend mode="normal" in2="effect2_dropShadow_3009_13032" result="effect3_dropShadow_3009_13032"/>
<feColorMatrix in="SourceAlpha" type="matrix" values="0 0 0 0 0 0 0 0 0 0 0 0 0 0 0 0 0 0 127 0" result="hardAlpha"/>
<feOffset dy="15.9561"/>
<feGaussianBlur stdDeviation="3.32418"/>
<feColorMatrix type="matrix" values="0 0 0 0 0 0 0 0 0 0 0 0 0 0 0 0 0 0 0.01 0"/>
<feBlend mode="normal" in2="effect3_dropShadow_3009_13032" result="effect4_dropShadow_3009_13032"/>
<feBlend mode="normal" in="SourceGraphic" in2="effect4_dropShadow_3009_13032" result="shape"/>
</filter>
</defs>
</svg>
