<svg width="76" height="87" viewBox="0 0 76 87" fill="none" xmlns="http://www.w3.org/2000/svg">
<g filter="url(#filter0_dddd_3009_13033)">
<circle cx="38.0295" cy="33.0783" r="31.0295" fill="#806181"/>
<circle cx="38.0295" cy="33.0783" r="27.7053" stroke="#806181" stroke-width="6.64837"/>
</g>
<path d="M42.3101 28.0021C42.2167 27.0596 41.8155 26.3274 41.1067 25.8055C40.3979 25.2836 39.4359 25.0227 38.2208 25.0227C37.3951 25.0227 36.698 25.1395 36.1294 25.3732C35.5608 25.5991 35.1246 25.9146 34.8208 26.3196C34.5248 26.7246 34.3768 27.1842 34.3768 27.6983C34.3612 28.1267 34.4508 28.5006 34.6455 28.8199C34.848 29.1393 35.1246 29.4158 35.4751 29.6495C35.8256 29.8754 36.2306 30.074 36.6902 30.2454C37.1498 30.409 37.6405 30.5492 38.1624 30.666L40.3122 31.1801C41.356 31.4138 42.314 31.7253 43.1864 32.1148C44.0588 32.5043 44.8144 32.9833 45.4531 33.5519C46.0918 34.1205 46.5864 34.7904 46.9369 35.5615C47.2953 36.3327 47.4783 37.2167 47.4861 38.2138C47.4783 39.6781 47.1044 40.9478 46.3644 42.0227C45.6323 43.0898 44.5729 43.9194 43.1864 44.5114C41.8077 45.0956 40.1447 45.3877 38.1974 45.3877C36.2657 45.3877 34.5832 45.0917 33.15 44.4997C31.7246 43.9077 30.6107 43.0314 29.8084 41.8708C29.0139 40.7024 28.5972 39.2575 28.5582 37.5361H33.4538C33.5083 38.3384 33.7381 39.0083 34.1431 39.5457C34.5559 40.0754 35.1051 40.4765 35.7905 40.7492C36.4838 41.014 37.2666 41.1464 38.139 41.1464C38.9958 41.1464 39.7397 41.0218 40.3706 40.7725C41.0093 40.5233 41.504 40.1767 41.8545 39.7327C42.205 39.2887 42.3802 38.7785 42.3802 38.2021C42.3802 37.6646 42.2206 37.2129 41.9012 36.8468C41.5896 36.4807 41.1301 36.1691 40.5225 35.912C39.9227 35.655 39.1867 35.4213 38.3143 35.211L35.7088 34.5567C33.6913 34.066 32.0984 33.2988 30.9301 32.255C29.7617 31.2112 29.1814 29.8053 29.1892 28.0371C29.1814 26.5883 29.5669 25.3226 30.3459 24.2399C31.1326 23.1572 32.2114 22.312 33.5823 21.7045C34.9532 21.0969 36.511 20.7931 38.2558 20.7931C40.0318 20.7931 41.5818 21.0969 42.906 21.7045C44.238 22.312 45.2739 23.1572 46.0139 24.2399C46.7539 25.3226 47.1356 26.5766 47.1589 28.0021H42.3101Z" fill="white"/>
<defs>
<filter id="filter0_dddd_3009_13033" x="0.351633" y="0.719155" width="75.3556" height="85.9927" filterUnits="userSpaceOnUse" color-interpolation-filters="sRGB">
<feFlood flood-opacity="0" result="BackgroundImageFix"/>
<feColorMatrix in="SourceAlpha" type="matrix" values="0 0 0 0 0 0 0 0 0 0 0 0 0 0 0 0 0 0 127 0" result="hardAlpha"/>
<feOffset dy="1.32967"/>
<feGaussianBlur stdDeviation="1.32967"/>
<feColorMatrix type="matrix" values="0 0 0 0 0 0 0 0 0 0 0 0 0 0 0 0 0 0 0.1 0"/>
<feBlend mode="normal" in2="BackgroundImageFix" result="effect1_dropShadow_3009_13033"/>
<feColorMatrix in="SourceAlpha" type="matrix" values="0 0 0 0 0 0 0 0 0 0 0 0 0 0 0 0 0 0 127 0" result="hardAlpha"/>
<feOffset dy="3.98902"/>
<feGaussianBlur stdDeviation="1.99451"/>
<feColorMatrix type="matrix" values="0 0 0 0 0 0 0 0 0 0 0 0 0 0 0 0 0 0 0.09 0"/>
<feBlend mode="normal" in2="effect1_dropShadow_3009_13033" result="effect2_dropShadow_3009_13033"/>
<feColorMatrix in="SourceAlpha" type="matrix" values="0 0 0 0 0 0 0 0 0 0 0 0 0 0 0 0 0 0 127 0" result="hardAlpha"/>
<feOffset dy="9.30771"/>
<feGaussianBlur stdDeviation="2.65935"/>
<feColorMatrix type="matrix" values="0 0 0 0 0 0 0 0 0 0 0 0 0 0 0 0 0 0 0.05 0"/>
<feBlend mode="normal" in2="effect2_dropShadow_3009_13033" result="effect3_dropShadow_3009_13033"/>
<feColorMatrix in="SourceAlpha" type="matrix" values="0 0 0 0 0 0 0 0 0 0 0 0 0 0 0 0 0 0 127 0" result="hardAlpha"/>
<feOffset dy="15.9561"/>
<feGaussianBlur stdDeviation="3.32418"/>
<feColorMatrix type="matrix" values="0 0 0 0 0 0 0 0 0 0 0 0 0 0 0 0 0 0 0.01 0"/>
<feBlend mode="normal" in2="effect3_dropShadow_3009_13033" result="effect4_dropShadow_3009_13033"/>
<feBlend mode="normal" in="SourceGraphic" in2="effect4_dropShadow_3009_13033" result="shape"/>
</filter>
</defs>
</svg>
